<svg width="429" height="342" viewBox="0 0 429 342" fill="none" xmlns="http://www.w3.org/2000/svg">
<g clip-path="url(#clip0)">
<path d="M426.352 0.934936C421 4.3887 415.625 7.70315 410.228 10.8783C409.838 11.1093 409.447 11.3402 409.057 11.5657C402.345 15.4925 395.606 19.1955 388.84 22.675C388.505 22.851 388.169 23.0215 387.833 23.1919C376.545 28.9666 365.216 34.116 353.847 38.6404C353.462 38.7944 353.077 38.9484 352.692 39.0968C345.656 41.8687 338.616 44.3948 331.573 46.6754C331.194 46.7964 330.808 46.9228 330.429 47.0383C329.994 47.1813 329.56 47.3188 329.125 47.4563C317.244 51.2066 305.165 54.3002 292.944 56.7232C292.493 56.8112 292.047 56.8992 291.602 56.9872C283.29 58.5931 274.952 59.8763 266.588 60.8369C266.209 60.8864 265.834 60.9304 265.455 60.9689C253.571 62.2977 241.622 62.9642 229.664 62.9653C201.466 62.9653 172.661 59.2365 143.841 51.867C143.429 51.7625 143.016 51.658 142.603 51.5425C137.74 50.2886 132.875 48.9265 128.009 47.4563C124.956 46.5324 121.893 45.5663 118.822 44.558C118.453 44.437 118.085 44.316 117.716 44.1895C104.656 39.8613 91.5067 34.765 78.2674 28.9006C77.8658 28.7246 77.4643 28.5431 77.0571 28.3616C69.0861 24.8088 61.0966 20.9811 53.0887 16.8784C52.7475 16.7079 52.4065 16.5319 52.0655 16.3504C42.7797 11.5767 33.4883 6.44189 24.1913 0.945929L24.7521 0C34.3738 5.68662 43.977 10.9791 53.5617 15.8774L53.5894 15.8884C61.324 19.8481 69.0458 23.5476 76.7546 26.9867C90.1205 32.9731 103.781 38.2797 117.683 42.8861C118.602 43.1886 119.515 43.4911 120.434 43.7771C128.19 46.2849 135.934 48.5232 143.665 50.4921C144.083 50.6021 144.496 50.7066 144.914 50.8111C185.397 61.0074 225.403 63.9534 264.932 59.649C265.312 59.616 265.686 59.572 266.065 59.5225C273.938 58.648 281.786 57.4785 289.61 56.0137C290.958 55.7607 292.306 55.5023 293.654 55.2273C305.77 52.8076 317.746 49.7287 329.527 46.0044C329.906 45.8834 330.291 45.7624 330.671 45.6359C338.081 43.2766 345.467 40.6496 352.83 37.755C353.214 37.601 353.6 37.4525 353.985 37.2985C365.07 32.9043 376.099 27.9106 387.074 22.3175C387.41 22.1525 387.745 21.982 388.081 21.8006C395.144 18.1873 402.182 14.3229 409.194 10.2073C409.59 9.98186 409.981 9.75087 410.372 9.51439C415.515 6.47859 420.644 3.31081 425.758 0.0110268L426.352 0.934936Z" fill="white"/>
<path d="M76.7546 26.9867L53.5894 15.8884L53.5617 15.8774L52.2745 15.2615L52.0656 16.3504L45.6952 49.4637L78.2675 28.9006L79.3403 28.2241L76.7546 26.9867ZM47.2574 47.1758L53.0887 16.8784V16.8674L77.0681 28.3561L77.0571 28.3616L47.2574 47.1758Z" fill="white"/>
<path d="M143.665 50.4921L142.603 51.5425L119.564 74.2505L118.822 44.558L118.794 43.3921L120.434 43.777C119.515 43.4911 118.602 43.1886 117.683 42.8861L117.716 44.1895L118.53 76.8133L143.841 51.867L144.914 50.8111C144.496 50.7066 144.083 50.6021 143.665 50.4921Z" fill="white"/>
<path d="M289.611 56.0137L292.207 55.7003L291.602 56.9872L277.145 87.5761L266.588 60.8369L266.065 59.5225C265.686 59.572 265.312 59.616 264.932 59.649L265.455 60.9689L277.057 90.3424L292.944 56.7232L293.654 55.2273C292.306 55.5023 290.958 55.7608 289.611 56.0137Z" fill="white"/>
<path d="M352.83 37.755L352.692 39.0969L349.804 67.6014L331.573 46.6754L330.671 45.6359C330.291 45.7624 329.906 45.8834 329.527 46.0044L330.429 47.0383L350.64 70.2413L353.847 38.6404L353.985 37.2985C353.6 37.4525 353.215 37.601 352.83 37.755Z" fill="white"/>
<path d="M409.194 10.2073L409.057 11.5657L405.866 42.3086L388.84 22.675L388.081 21.8005C387.745 21.982 387.41 22.1525 387.074 22.3175L387.833 23.1919L406.697 44.9484L410.228 10.8782L410.372 9.51431C409.981 9.75083 409.59 9.98182 409.194 10.2073Z" fill="white"/>
<path d="M265.885 204.647C259.134 198.943 255.033 189.934 256.108 181.163C257.184 172.392 263.845 164.329 272.485 162.467C281.126 160.604 290.975 165.76 293.599 174.198C295.044 157.93 296.708 140.98 305.359 127.126C313.193 114.582 326.761 105.606 341.466 104C356.171 102.395 371.654 108.459 380.824 120.063C389.995 131.666 392.241 148.534 385.818 161.856C381.086 171.669 372.369 178.973 363.235 184.914C333.721 203.952 298.323 211.694 263.554 206.715L265.885 204.647Z" fill="white"/>
<path d="M366.283 108.796C354.15 118.676 343.019 129.726 333.051 141.786C317.451 160.596 304.828 181.685 295.621 204.318C294.947 205.97 297.628 206.688 298.295 205.056C313.36 168.271 337.409 135.85 368.244 110.756C369.629 109.629 367.656 107.678 366.283 108.796Z" fill="white"/>
<path d="M125.927 295.809C124.551 296.012 123.173 296.194 121.79 296.353C88.3163 300.161 54.5563 292.265 26.2459 274.008C17.1139 268.068 8.39458 260.765 3.66381 250.948C-2.76162 237.628 -0.511747 220.761 8.65889 209.156C11.9976 204.968 16.1122 201.461 20.7778 198.828C21.4711 198.427 22.1751 198.053 22.8901 197.695C30.6526 193.792 39.3715 192.194 48.0141 193.092C62.7184 194.698 76.2899 203.679 84.1234 216.218C92.7713 230.072 94.4381 247.021 95.8794 263.289C95.995 262.915 96.1271 262.547 96.27 262.189C96.5745 261.423 96.9425 260.684 97.3702 259.978V287.004C97.3729 289.191 98.2431 291.287 99.7901 292.834C101.337 294.38 103.434 295.25 105.622 295.253H125.3L125.927 295.809Z" fill="white"/>
<path d="M23.1981 197.89C35.3314 207.77 46.4625 218.82 56.4303 230.88C66.3996 242.928 75.1766 255.914 82.6378 269.656C86.8083 277.365 90.5548 285.296 93.8605 293.413C94.5345 295.064 91.8525 295.782 91.186 294.15C85.3308 279.839 78.0868 266.137 69.558 253.24C61.0705 240.389 51.3561 228.392 40.5513 217.416C34.4401 211.211 27.9922 205.347 21.2369 199.85C19.8522 198.723 21.8248 196.772 23.198 197.89H23.1981Z" fill="white"/>
<path d="M286.885 233.657H144.13V217.983C144.13 216.598 143.579 215.269 142.599 214.289C141.619 213.309 140.29 212.759 138.904 212.759C137.518 212.759 136.189 213.309 135.208 214.289C134.228 215.269 133.678 216.598 133.678 217.983V238.882C133.682 240.266 134.234 241.593 135.213 242.572C136.192 243.551 137.519 244.103 138.904 244.107H286.885C288.271 244.107 289.6 243.556 290.58 242.576C291.56 241.597 292.111 240.268 292.111 238.882C292.111 237.496 291.56 236.167 290.58 235.188C289.6 234.208 288.271 233.657 286.885 233.657Z" fill="white"/>
<path d="M428.345 341.966H22.1987C22.0253 341.966 21.8592 341.897 21.7368 341.774C21.6143 341.651 21.5456 341.485 21.5456 341.311C21.5456 341.138 21.6143 340.972 21.7368 340.849C21.8592 340.726 22.0253 340.657 22.1987 340.657H428.345C428.518 340.657 428.684 340.726 428.807 340.849C428.929 340.972 428.998 341.138 428.998 341.311C428.998 341.485 428.929 341.651 428.807 341.774C428.684 341.897 428.518 341.966 428.345 341.966Z" fill="#3F3D56"/>
<path d="M380.128 295.253H70.414C67.9348 295.257 65.5582 296.243 63.8051 297.995C62.052 299.748 61.0656 302.124 61.0621 304.603V332.651C61.0656 335.129 62.052 337.505 63.8051 339.258C65.5582 341.01 67.9348 341.996 70.414 342H380.128C382.608 341.996 384.984 341.01 386.737 339.258C388.49 337.505 389.477 335.129 389.48 332.651V304.603C389.477 302.124 388.49 299.748 386.737 297.995C384.984 296.243 382.608 295.257 380.128 295.253ZM388.38 332.651C388.378 334.838 387.507 336.934 385.96 338.481C384.413 340.027 382.316 340.897 380.128 340.9H70.414C68.2263 340.897 66.129 340.027 64.5821 338.481C63.0352 336.934 62.165 334.838 62.1623 332.651V304.603C62.165 302.415 63.0352 300.319 64.5821 298.772C66.129 297.226 68.2263 296.356 70.414 296.353H380.128C382.316 296.356 384.413 297.226 385.96 298.772C387.507 300.319 388.378 302.415 388.38 304.603V332.651Z" fill="#3F3D56"/>
<path d="M365.001 324.951H78.6663V309.277C78.6663 307.892 78.1158 306.563 77.1357 305.583C76.1556 304.603 74.8263 304.053 73.4403 304.053C72.0542 304.053 70.7249 304.603 69.7449 305.583C68.7648 306.563 68.2142 307.892 68.2142 309.277V330.176C68.2182 331.56 68.7701 332.887 69.7493 333.866C70.7285 334.845 72.0555 335.396 73.4403 335.4H365.001C366.387 335.4 367.716 334.85 368.696 333.87C369.676 332.89 370.227 331.561 370.227 330.176C370.227 328.79 369.676 327.461 368.696 326.481C367.716 325.502 366.387 324.951 365.001 324.951Z" fill="white"/>
<path d="M313.84 276.554H114.424V260.88C114.424 259.495 113.873 258.166 112.893 257.186C111.913 256.206 110.584 255.656 109.198 255.656C107.812 255.656 106.482 256.206 105.502 257.186C104.522 258.166 103.972 259.495 103.972 260.88V281.779C103.976 283.163 104.528 284.49 105.507 285.469C106.486 286.448 107.813 287 109.198 287.004H313.84C315.226 287.004 316.556 286.453 317.536 285.473C318.516 284.494 319.066 283.165 319.066 281.779C319.066 280.393 318.516 279.064 317.536 278.085C316.556 277.105 315.226 276.554 313.84 276.554Z" fill="white"/>
<path d="M333.325 312.89C289.316 301.891 195.796 317.29 194.146 317.29C192.534 317.29 90.2236 332.497 93.5958 296.353C93.6289 295.99 93.6729 295.627 93.7279 295.253H368.362C368.428 295.578 368.494 295.946 368.554 296.353C369.616 303.519 369.093 321.833 333.325 312.89Z" fill="#F14949"/>
<path d="M345.471 249.606H105.621C103.142 249.61 100.765 250.596 99.0124 252.348C97.2594 254.101 96.2729 256.477 96.2694 258.956V287.004C96.2751 289.482 97.2622 291.856 99.0148 293.608C100.767 295.361 103.143 296.347 105.621 296.353H345.471C347.949 296.344 350.322 295.356 352.074 293.605C353.826 291.853 354.814 289.48 354.823 287.004V258.956C354.82 256.477 353.833 254.101 352.08 252.348C350.327 250.596 347.95 249.61 345.471 249.606ZM353.723 287.004C353.718 289.19 352.848 291.286 351.301 292.832C349.755 294.378 347.658 295.249 345.471 295.253H105.621C103.434 295.249 101.338 294.378 99.7913 292.832C98.2447 291.286 97.374 289.19 97.3696 287.004V258.956C97.3723 256.769 98.2425 254.672 99.7894 253.125C101.336 251.579 103.434 250.709 105.621 250.706H345.471C347.659 250.709 349.756 251.579 351.303 253.125C352.85 254.672 353.72 256.769 353.723 258.956V287.004Z" fill="#3F3D56"/>
<path d="M314.957 265.061C276.491 255.447 194.749 268.906 193.307 268.906C191.898 268.906 102.473 282.198 105.421 250.606C105.449 250.289 105.488 249.972 105.536 249.645H345.581C345.639 249.928 345.697 250.25 345.75 250.606C346.678 256.87 346.221 272.877 314.957 265.061Z" fill="#F14949"/>
<path d="M315.766 250.156H134.778C132.299 250.153 129.921 249.168 128.168 247.415C126.415 245.662 125.429 243.286 125.426 240.807V212.759C125.429 210.28 126.415 207.903 128.168 206.151C129.921 204.398 132.299 203.412 134.778 203.409H315.766C318.245 203.412 320.622 204.398 322.375 206.151C324.129 207.903 325.115 210.28 325.118 212.759V240.807C325.115 243.286 324.129 245.662 322.375 247.415C320.622 249.167 318.245 250.153 315.766 250.156ZM134.778 204.509C132.59 204.512 130.493 205.382 128.946 206.928C127.399 208.475 126.529 210.572 126.526 212.759V240.807C126.529 242.994 127.399 245.091 128.946 246.637C130.493 248.184 132.59 249.054 134.778 249.056H315.766C317.953 249.054 320.051 248.184 321.598 246.637C323.145 245.091 324.015 242.994 324.017 240.807V212.759C324.015 210.572 323.145 208.475 321.598 206.928C320.051 205.382 317.953 204.512 315.766 204.509H134.778Z" fill="#3F3D56"/>
<path d="M294.135 215.29C264.638 207.918 201.958 218.239 200.852 218.239C199.772 218.239 131.2 228.431 133.46 204.206C133.482 203.963 133.511 203.72 133.548 203.469H317.618C317.662 203.686 317.706 203.933 317.747 204.206C318.459 209.009 318.108 221.284 294.135 215.29Z" fill="#F14949"/>
<path d="M225.502 206.198C235.832 206.198 244.206 205.459 244.206 204.548C244.206 203.637 235.832 202.898 225.502 202.898C215.172 202.898 206.798 203.637 206.798 204.548C206.798 205.459 215.172 206.198 225.502 206.198Z" fill="#3F3D56"/>
<path d="M224.447 143.308C224.432 143.612 224.441 143.916 224.474 144.219L203.576 161.752L197.345 159.497L192.71 168.454L206.335 174.938L229.181 149.308C230.335 149.517 231.525 149.37 232.593 148.887C233.661 148.403 234.557 147.606 235.161 146.602C235.764 145.597 236.048 144.432 235.974 143.263C235.9 142.093 235.471 140.973 234.745 140.053C234.019 139.133 233.03 138.455 231.909 138.111C230.788 137.766 229.589 137.771 228.471 138.124C227.353 138.478 226.37 139.163 225.651 140.089C224.932 141.015 224.512 142.137 224.447 143.308V143.308Z" fill="#FFB8B8"/>
<path d="M196.419 172.751L176.239 165.469C175.321 165.138 174.477 164.63 173.755 163.973C173.034 163.317 172.449 162.524 172.034 161.641C171.619 160.759 171.382 159.803 171.336 158.828C171.291 157.854 171.438 156.88 171.769 155.962C172.101 155.045 172.609 154.201 173.267 153.481C173.924 152.76 174.718 152.175 175.601 151.761C176.484 151.347 177.441 151.111 178.416 151.066C179.39 151.022 180.364 151.17 181.282 151.502L201.462 158.784C201.768 158.894 202.049 159.063 202.289 159.282C202.529 159.501 202.724 159.765 202.862 160.059C203 160.354 203.079 160.672 203.094 160.997C203.109 161.321 203.06 161.646 202.95 161.951L199.588 171.263C199.365 171.88 198.905 172.383 198.311 172.662C197.717 172.94 197.037 172.972 196.419 172.751Z" fill="#2F2E41"/>
<path d="M223.897 129.714C223.751 129.714 223.611 129.656 223.508 129.553C223.404 129.45 223.346 129.31 223.346 129.164V108.816C223.346 108.67 223.404 108.53 223.508 108.427C223.611 108.324 223.751 108.266 223.897 108.266C224.042 108.266 224.182 108.324 224.286 108.427C224.389 108.53 224.447 108.67 224.447 108.816V129.164C224.447 129.31 224.389 129.45 224.286 129.553C224.182 129.656 224.042 129.714 223.897 129.714Z" fill="#3F3D56"/>
<path d="M233.248 104.416C238.368 109.171 231.985 119.265 224.997 119.265C221.641 119.265 218.423 117.932 216.05 115.56C213.677 113.188 212.344 109.971 212.344 106.616C212.344 99.6299 226.019 68.8131 223.346 75.2679C222.493 77.3284 227.386 98.9706 233.248 104.416Z" fill="#FFB053"/>
<path d="M228.848 184.435H219.496C218.839 184.435 218.21 184.174 217.746 183.71C217.282 183.246 217.021 182.617 217.02 181.961V125.865C217.021 125.208 217.282 124.579 217.746 124.115C218.21 123.651 218.839 123.391 219.496 123.39H228.848C229.504 123.391 230.133 123.651 230.597 124.115C231.061 124.579 231.322 125.208 231.323 125.865V181.961C231.322 182.617 231.061 183.246 230.597 183.71C230.133 184.174 229.504 184.435 228.848 184.435Z" fill="#6B6B6B"/>
<path d="M181.64 243.691H188.384L191.592 217.685L181.639 217.685L181.64 243.691Z" fill="#FFB8B8"/>
<path d="M201.391 249.951L180.195 249.952L180.194 241.765L193.201 241.765C195.373 241.764 197.456 242.627 198.992 244.162C200.528 245.698 201.391 247.78 201.391 249.951Z" fill="#2F2E41"/>
<path d="M164.972 234.982L170.489 238.86L188.077 219.431L179.934 213.707L164.972 234.982Z" fill="#FFB8B8"/>
<path d="M177.527 251.46L160.188 239.272L164.898 232.575L175.538 240.054C177.315 241.303 178.523 243.206 178.896 245.345C179.269 247.484 178.777 249.684 177.527 251.46L177.527 251.46Z" fill="#2F2E41"/>
<path d="M196.397 196.844C196.397 196.844 213.228 194.858 210.207 205.777C207.186 216.696 173.525 226.125 173.525 226.125L196.397 196.844Z" fill="#FFB8B8"/>
<path d="M184.813 141.131C192.275 141.131 198.324 135.084 198.324 127.624C198.324 120.164 192.275 114.116 184.813 114.116C177.351 114.116 171.302 120.164 171.302 127.624C171.302 135.084 177.351 141.131 184.813 141.131Z" fill="#FFB8B8"/>
<path d="M141.724 223.89C134.036 214.94 131.346 201.204 143.606 189.78C146.634 187.028 150.063 184.752 153.775 183.029L163.657 155.402C164.683 152.517 166.565 150.014 169.051 148.226C171.538 146.438 174.51 145.45 177.573 145.395C180.546 145.266 183.486 146.062 185.989 147.671C188.492 149.28 190.436 151.625 191.552 154.383C192.759 157.188 192.897 160.339 191.94 163.239C188.999 172.397 185.136 181.233 180.411 189.612L180.922 193.699L205.899 195.918L205.666 196.296C205.544 196.494 193.32 215.114 177.682 227.473C172.335 231.699 166.806 233.45 161.587 233.45C153.674 233.449 146.476 229.421 141.724 223.89Z" fill="#2F2E41"/>
<path d="M225.124 162.171C224.981 162.44 224.86 162.72 224.761 163.008L198.391 169.999L193.709 165.309L185.705 171.448L195.282 183.106L226.858 169.614C227.813 170.294 228.953 170.666 230.125 170.683C231.298 170.699 232.447 170.358 233.421 169.705C234.395 169.053 235.147 168.119 235.577 167.029C236.007 165.938 236.095 164.743 235.829 163.601C235.563 162.46 234.956 161.426 234.088 160.638C233.22 159.85 232.133 159.345 230.97 159.19C229.808 159.034 228.626 159.236 227.582 159.769C226.538 160.302 225.68 161.14 225.124 162.171H225.124Z" fill="#FFB8B8"/>
<path d="M187.236 176.913L172.066 161.747C171.375 161.057 170.828 160.239 170.454 159.338C170.08 158.437 169.888 157.471 169.887 156.496C169.887 155.52 170.079 154.554 170.452 153.653C170.825 152.752 171.373 151.933 172.063 151.244C172.752 150.554 173.571 150.007 174.473 149.634C175.374 149.261 176.34 149.069 177.316 149.069C178.292 149.069 179.258 149.262 180.159 149.635C181.06 150.009 181.879 150.557 182.568 151.247L197.739 166.413C197.969 166.643 198.151 166.916 198.275 167.216C198.4 167.516 198.464 167.838 198.464 168.163C198.464 168.488 198.4 168.81 198.275 169.11C198.151 169.41 197.969 169.683 197.739 169.913L190.737 176.913C190.272 177.376 189.643 177.636 188.987 177.636C188.33 177.636 187.701 177.376 187.236 176.913Z" fill="#2F2E41"/>
<path d="M139.367 131.861C141.757 129.014 142.783 125.289 143.607 121.664C144.912 115.929 145.922 109.998 148.822 104.88C151.721 99.7616 157.049 95.5206 162.924 95.8434C168.765 96.1644 173.487 100.863 175.994 106.208C176.601 105.972 177.251 105.867 177.901 105.898C178.552 105.93 179.188 106.097 179.77 106.39C181.577 107.379 182.252 110.191 180.748 111.598C182.33 110.845 184.052 110.433 185.804 110.39C187.555 110.346 189.296 110.671 190.913 111.345C192.993 112.23 194.788 113.671 196.101 115.51C197.414 117.349 198.194 119.515 198.356 121.769C198.419 122.684 198.293 123.601 197.987 124.466C197.68 125.33 197.2 126.122 196.574 126.793C193.982 129.461 190.316 128.541 187.055 127.861C183.976 127.219 180.225 127.046 178.491 129.979C177.807 131.201 177.616 132.638 177.956 133.997C178.62 136.925 180.789 138.964 182.893 140.916L183.237 141.555C175.809 143.003 167.698 137.932 165.749 130.621C163.8 123.311 168.312 114.877 175.476 112.438C174.999 112.453 174.527 112.34 174.108 112.111C173.69 111.883 173.34 111.547 173.095 111.138C172.849 110.729 172.718 110.261 172.714 109.785C172.71 109.308 172.833 108.838 173.071 108.425C171.008 107.394 168.842 106.655 166.571 106.804C162.871 107.047 159.668 109.68 157.743 112.848C155.817 116.016 154.945 119.694 154.061 123.294C153.178 126.895 152.222 130.565 150.163 133.648C148.737 135.783 146.831 137.556 144.598 138.825C142.365 140.093 139.866 140.822 137.301 140.954C134.736 141.085 132.175 140.616 129.824 139.582C127.473 138.549 125.395 136.98 123.758 135.002C126.346 136.256 129.273 136.628 132.092 136.061C134.911 135.494 137.466 134.019 139.367 131.861Z" fill="#2F2E41"/>
</g>
<defs>
<clipPath id="clip0">
<rect width="429" height="342" fill="white"/>
</clipPath>
</defs>
</svg>
