<svg width="395" height="330" viewBox="0 0 395 330" fill="none" xmlns="http://www.w3.org/2000/svg">
<path d="M318.652 322.234L52.6667 80.9449L94.2597 0L386.71 320.252L318.652 322.234Z" fill="#F2F2F2"/>
<path d="M197.5 68.2728C206.388 68.2728 213.593 61.0718 213.593 52.189C213.593 43.3062 206.388 36.1052 197.5 36.1052C188.612 36.1052 181.407 43.3062 181.407 52.189C181.407 61.0718 188.612 68.2728 197.5 68.2728Z" fill="#F2F2F2"/>
<path d="M268.21 90.6926C271.172 90.6926 273.574 88.2923 273.574 85.3314C273.574 82.3704 271.172 79.9701 268.21 79.9701C265.247 79.9701 262.846 82.3704 262.846 85.3314C262.846 88.2923 265.247 90.6926 268.21 90.6926Z" fill="#3F3D56"/>
<path d="M268.21 133.095C271.172 133.095 273.574 130.695 273.574 127.734C273.574 124.773 271.172 122.373 268.21 122.373C265.247 122.373 262.846 124.773 262.846 127.734C262.846 130.695 265.247 133.095 268.21 133.095Z" fill="#3F3D56"/>
<path d="M321.852 143.818C324.814 143.818 327.216 141.418 327.216 138.457C327.216 135.496 324.814 133.095 321.852 133.095C318.889 133.095 316.488 135.496 316.488 138.457C316.488 141.418 318.889 143.818 321.852 143.818Z" fill="#3F3D56"/>
<path d="M197.5 330C306.576 330 395 325.636 395 320.252C395 314.869 306.576 310.504 197.5 310.504C88.4238 310.504 0 314.869 0 320.252C0 325.636 88.4238 330 197.5 330Z" fill="#F2F2F2"/>
<path d="M313.033 161.927C310.793 158.234 302.968 158.33 302.968 158.33C295.844 168.909 278.719 157.671 278.719 157.671C266 163.359 258.24 145.235 258.24 145.235C241.125 142.677 243.769 124.713 243.769 124.713C235.255 123.004 237.644 107.618 237.644 107.618C237.644 107.618 242.369 103.745 240.044 100.912C238.565 99.1105 238.474 93.9411 238.603 90.4122C227.492 87.0349 215.941 85.3227 204.327 85.3314C139.42 85.3314 86.8025 137.92 86.8025 202.792C86.8025 267.663 139.42 320.252 204.327 320.252C269.234 320.252 321.852 267.663 321.852 202.792C321.866 188.699 319.336 174.718 314.385 161.522C313.782 162.203 313.314 162.39 313.033 161.927Z" fill="#3F3D56"/>
<path opacity="0.1" d="M313.033 161.927C310.793 158.234 302.968 158.33 302.968 158.33C295.844 168.909 278.719 157.671 278.719 157.671C266 163.359 258.24 145.235 258.24 145.235C241.125 142.677 243.769 124.713 243.769 124.713C235.255 123.004 237.644 107.618 237.644 107.618C237.644 107.618 242.369 103.745 240.044 100.912C238.565 99.1105 238.474 93.9411 238.603 90.4122C227.492 87.0349 215.941 85.3227 204.327 85.3314C139.42 85.3314 86.8025 137.92 86.8025 202.792C86.8025 267.663 139.42 320.252 204.327 320.252C269.234 320.252 321.852 267.663 321.852 202.792C321.866 188.699 319.336 174.718 314.385 161.522C313.782 162.203 313.314 162.39 313.033 161.927Z" fill="black"/>
<path d="M306.068 161.463C303.938 157.951 296.496 158.042 296.496 158.042C289.721 168.103 273.434 157.416 273.434 157.416C261.338 162.825 253.957 145.588 253.957 145.588C237.68 143.155 240.195 126.07 240.195 126.07C232.097 124.445 234.369 109.813 234.369 109.813C234.369 109.813 238.863 106.129 236.651 103.435C235.246 101.722 235.158 96.8053 235.281 93.4491C224.714 90.2371 213.729 88.6087 202.684 88.617C140.954 88.617 90.9117 138.632 90.9117 200.328C90.9117 262.024 140.954 312.038 202.684 312.038C264.413 312.038 314.455 262.024 314.455 200.328C314.469 186.924 312.063 173.628 307.354 161.078C306.78 161.726 306.335 161.903 306.068 161.463Z" fill="#3F3D56"/>
<path d="M189.338 154.656C189.338 154.656 170.063 142.397 151.665 154.656C145.226 158.947 142.006 165.061 140.541 171.196C137.936 182.106 140.793 193.606 147.758 202.4L189.38 254.946C190.807 256.777 192.721 258.169 194.903 258.964C197.085 259.758 199.446 259.923 201.717 259.44C201.807 259.42 201.898 259.398 201.989 259.377C203.634 258.972 205.179 258.235 206.528 257.212C207.877 256.188 209.002 254.899 209.833 253.424L238.78 202.619C244.135 193.367 246.33 182.624 245.033 172.014C243.676 161.565 238.655 150.552 224.382 146.775C224.382 146.775 207.736 139.77 189.338 154.656Z" fill="#FF3030"/>
<path opacity="0.1" d="M189.338 154.656C189.338 154.656 170.063 142.397 151.665 154.656C145.226 158.947 142.006 165.061 140.541 171.196C137.936 182.106 140.793 193.606 147.758 202.4L189.38 254.946C190.807 256.777 192.721 258.169 194.903 258.964C197.085 259.758 199.446 259.923 201.717 259.44C201.807 259.42 201.898 259.398 201.989 259.377C203.634 258.972 205.179 258.235 206.528 257.212C207.877 256.188 209.002 254.899 209.833 253.424L238.78 202.619C244.135 193.367 246.33 182.624 245.033 172.014C243.676 161.565 238.655 150.552 224.382 146.775C224.382 146.775 207.736 139.77 189.338 154.656Z" fill="black"/>
<path d="M189.534 157.615C189.534 157.615 171.453 146.115 154.194 157.615C148.154 161.64 145.133 167.375 143.759 173.131C141.316 183.364 143.995 194.153 150.529 202.402L189.574 251.694C190.912 253.411 192.708 254.717 194.755 255.462C196.801 256.208 199.016 256.363 201.147 255.909C201.231 255.89 201.316 255.87 201.402 255.85C202.945 255.47 204.394 254.779 205.659 253.819C206.925 252.858 207.98 251.649 208.76 250.266L235.914 202.607C240.937 193.928 242.996 183.85 241.78 173.897C240.506 164.096 235.797 153.764 222.408 150.222C222.408 150.222 206.793 143.651 189.534 157.615Z" fill="#FF3030"/>
<path opacity="0.1" d="M190.238 177.333C190.238 177.333 181.441 171.738 173.044 177.333C170.437 179.096 168.616 181.803 167.967 184.882C167.405 187.35 167.409 189.913 167.98 192.38C168.55 194.846 169.672 197.152 171.261 199.123C171.261 199.123 193.782 225.627 195.888 225.156C195.929 225.146 195.97 225.137 196.012 225.127C197.529 224.763 212.803 199.223 212.803 199.223C215.247 195 216.249 190.097 215.657 185.255C215.037 180.486 212.746 175.46 206.232 173.736C206.232 173.736 198.634 170.539 190.238 177.333Z" fill="black"/>
<path opacity="0.1" d="M135.292 219.22L137.757 223.327L142.688 231.541L144.332 237.291L141.045 242.219L145.154 252.076L146.798 257.826L143.51 261.111L150.085 266.04" fill="black"/>
<path opacity="0.1" d="M256.104 183.078V189.649L251.994 200.328L249.529 206.077L253.638 213.47L255.282 218.398L261.857 220.863L264.322 224.97V234.826" fill="black"/>
<path opacity="0.1" d="M298.018 189.649L291.443 193.756C291.443 193.756 288.156 195.399 288.156 196.221V202.792" fill="black"/>
<path opacity="0.1" d="M268.432 166.65L270.075 174.864L268.432 180.614" fill="black"/>
<path opacity="0.1" d="M275.006 240.577L270.075 247.969L264.322 252.897V256.183L267.61 260.29V265.218L265.144 270.147" fill="black"/>
<path opacity="0.1" d="M228.161 100.938H219.942L213.367 106.688L202.683 112.437L197.752 116.545V118.188L187.068 123.937L183.781 129.687" fill="black"/>
<path opacity="0.1" d="M139.401 114.902L132.004 129.687L129.539 135.437L123.786 142.829C123.786 142.829 119.677 150.222 118.855 151.043C118.033 151.865 112.28 153.508 112.28 153.508L120.498 161.722" fill="black"/>
<path opacity="0.1" d="M106.527 171.578L104.883 182.257L106.527 188.828V200.328L101.596 221.684L106.527 227.434L112.28 234.826" fill="black"/>
<path opacity="0.1" d="M118.855 176.507L123.786 178.971L127.073 189.649L133.648 188.006L136.935 193.757" fill="black"/>
<path opacity="0.1" d="M209.258 283.289L222.408 281.646L228.161 275.897H236.379" fill="black"/>
<path opacity="0.1" d="M129.539 266.04L134.47 271.789L142.688 274.254L148.441 275.897L150.085 284.932" fill="black"/>
<path opacity="0.1" d="M226.517 238.112L232.27 234.005L234.736 227.434L239.667 226.612L242.132 218.398" fill="black"/>
<path d="M78.9207 31.7187H92.6814C97.0261 31.7187 101.193 33.4437 104.265 36.5141C107.337 39.5845 109.063 43.7489 109.063 48.0912V78.2169H62.5393V48.0912C62.5393 45.9411 62.963 43.8121 63.7863 41.8257C64.6095 39.8393 65.8162 38.0344 67.3373 36.5141C68.8585 34.9938 70.6643 33.7878 72.6518 32.965C74.6393 32.1422 76.7695 31.7187 78.9207 31.7187Z" fill="#2F2E41"/>
<path d="M93.0483 290.074C93.0483 290.074 91.5853 299.334 89.1471 300.796C86.7088 302.259 101.826 305.67 101.826 305.67L104.264 291.049L93.0483 290.074Z" fill="#FBBEBE"/>
<path d="M111.091 184.311L116.456 190.647L114.017 212.579L112.067 255.957C112.067 255.957 115.968 293.486 112.067 294.46C108.166 295.435 90.61 294.948 91.0977 292.511C91.5853 290.074 92.073 288.124 93.0483 284.713C94.0236 281.301 92.073 269.116 92.073 269.116L94.5112 255.469L85.7335 196.496L111.091 184.311Z" fill="#2F2E41"/>
<path d="M93.5359 299.334C93.5359 299.334 88.1717 298.359 87.6841 299.334C87.1964 300.309 77.931 310.544 76.468 310.544C75.0051 310.544 64.2767 320.292 75.4927 320.779C86.7088 321.267 105.24 312.494 105.24 312.494C105.24 312.494 102.513 300.091 102.657 300.688C102.801 301.284 93.5359 301.771 93.5359 299.334Z" fill="#2F2E41"/>
<path d="M87.6841 276.914C87.6841 276.914 101.338 292.023 101.826 293.486C102.314 294.948 109.629 293.486 109.629 293.486L112.554 283.738L110.116 280.326L96.4619 269.116L87.6841 276.914Z" fill="#FBBEBE"/>
<path d="M107.19 288.124L100.119 294.776C100.119 294.776 109.141 308.595 109.141 310.057C109.141 311.519 109.629 323.704 114.505 321.754C119.382 319.805 119.869 300.309 119.869 300.309C119.869 300.309 119.382 280.326 116.456 278.864C113.53 277.402 107.117 277.864 107.117 277.864C107.117 277.864 111.091 287.637 107.19 288.124Z" fill="#2F2E41"/>
<path d="M66.7149 140.933C66.7149 140.933 64.2767 148.732 63.789 150.681C63.3014 152.631 60.3754 157.992 60.3754 166.277C60.3754 174.563 61.3508 184.311 60.3754 185.286C59.4001 186.26 43.7952 240.848 50.6224 246.696C57.4495 252.545 79.8816 272.041 81.3446 274.478C82.8075 276.914 83.2952 282.763 86.2211 281.788C89.147 280.814 100.363 271.066 100.851 269.116C101.338 267.167 94.5112 263.755 94.5112 263.755C94.5112 263.755 80.8569 243.772 77.4433 244.259C74.0298 244.747 74.5174 241.823 75.0051 240.36C75.4927 238.898 76.468 237.923 75.0051 237.923C73.5421 237.923 74.5174 234.024 75.0051 232.075C75.4927 230.125 86.7088 203.806 86.7088 203.806L116.456 190.647C116.456 190.647 114.993 155.068 104.264 145.32L101.826 139.471C101.826 139.471 74.5174 137.522 66.7149 140.933Z" fill="#2F2E41"/>
<path d="M78.9063 63.9261C78.9063 63.9261 81.3446 80.9846 75.4927 81.9594C69.6409 82.9342 64.7643 82.4468 64.7643 82.9342C64.7643 83.4216 79.394 98.5306 79.394 98.5306L93.0483 97.5558L105.24 84.3963C105.24 84.3963 94.0236 82.4468 94.0236 75.6234C94.0236 68.7999 93.536 63.9261 93.536 63.9261H78.9063Z" fill="#FBBEBE"/>
<path opacity="0.1" d="M78.9063 63.9261C78.9063 63.9261 81.3446 80.9846 75.4927 81.9594C69.6409 82.9342 64.7643 82.4468 64.7643 82.9342C64.7643 83.4216 79.394 98.5306 79.394 98.5306L93.0483 97.5558L105.24 84.3963C105.24 84.3963 94.0236 82.4468 94.0236 75.6234C94.0236 68.7999 93.536 63.9261 93.536 63.9261H78.9063Z" fill="black"/>
<path d="M86.4649 70.9932C94.814 70.9932 101.582 64.2286 101.582 55.8841C101.582 47.5397 94.814 40.7751 86.4649 40.7751C78.1159 40.7751 71.3477 47.5397 71.3477 55.8841C71.3477 64.2286 78.1159 70.9932 86.4649 70.9932Z" fill="#FBBEBE"/>
<path d="M73.0545 80.4972C73.0545 80.4972 54.036 82.9342 52.573 89.2702C51.11 95.6062 62.3261 135.085 63.789 138.496C65.252 141.908 64.7643 144.345 64.7643 144.345C66.9709 142.696 69.5053 141.538 72.197 140.949C74.8887 140.361 77.6753 140.355 80.3693 140.933C89.6347 142.883 102.801 141.908 102.801 141.908C102.801 141.908 107.19 123.875 108.166 121.925C109.141 119.976 113.042 109.253 113.042 106.329C113.042 103.404 118.894 91.2197 118.894 91.2197C118.894 91.2197 115.968 82.4468 105.24 82.9342C105.24 82.9342 100.56 80.8408 99.2424 82.3749C97.9248 83.9089 90.61 90.7324 81.3446 87.808C72.0792 84.8837 73.0545 80.4972 73.0545 80.4972Z" fill="#FF6584"/>
<path d="M57.9372 88.7828H52.573L49.647 127.286C49.647 127.286 60.3754 130.211 61.8384 128.261C63.3014 126.312 57.9372 88.7828 57.9372 88.7828Z" fill="#FF6584"/>
<path d="M109.629 88.7828L118.894 91.2198C118.894 91.2198 125.721 116.077 126.209 116.564C126.696 117.051 127.184 119.976 127.184 119.976C127.184 119.976 127.184 120.463 128.159 121.925C129.135 123.387 130.598 122.413 129.622 124.362C128.647 126.312 127.184 125.337 128.159 127.286C129.135 129.236 128.647 134.597 128.647 134.597C128.647 134.597 126.209 125.337 117.431 127.774L111.579 101.455L109.629 88.7828Z" fill="#FF6584"/>
<path d="M98.2677 52.2094H74.7784L69.4605 39.9936H102.256L98.2677 52.2094Z" fill="#2F2E41"/>
<path d="M71.6968 61.148C72.3242 60.9663 72.4398 59.4634 71.955 57.7912C71.4702 56.1189 70.5685 54.9106 69.941 55.0923C69.3136 55.2741 69.198 56.777 69.6829 58.4492C70.1677 60.1214 71.0694 61.3298 71.6968 61.148Z" fill="#FFB9B9"/>
<path d="M103.476 58.4492C103.961 56.777 103.845 55.2741 103.217 55.0924C102.59 54.9106 101.688 56.119 101.204 57.7912C100.719 59.4634 100.834 60.9664 101.462 61.1481C102.089 61.3298 102.991 60.1215 103.476 58.4492Z" fill="#FFB9B9"/>
<path d="M99.4815 122.86C104.329 122.86 108.259 118.932 108.259 114.087C108.259 109.242 104.329 105.314 99.4815 105.314C94.6337 105.314 90.7037 109.242 90.7037 114.087C90.7037 118.932 94.6337 122.86 99.4815 122.86Z" fill="#3F3D56"/>
<path opacity="0.1" d="M99.4815 122.86C104.329 122.86 108.259 118.932 108.259 114.087C108.259 109.242 104.329 105.314 99.4815 105.314C94.6337 105.314 90.7037 109.242 90.7037 114.087C90.7037 118.932 94.6337 122.86 99.4815 122.86Z" fill="black"/>
<path d="M99.4815 121.99C103.849 121.99 107.389 118.452 107.389 114.087C107.389 109.723 103.849 106.184 99.4815 106.184C95.1144 106.184 91.5742 109.723 91.5742 114.087C91.5742 118.452 95.1144 121.99 99.4815 121.99Z" fill="#3F3D56"/>
<path opacity="0.1" d="M99.1328 109.62C99.1328 109.62 97.1181 108.338 95.195 109.62C94.5979 110.024 94.181 110.643 94.0323 111.349C93.9036 111.914 93.9045 112.501 94.0352 113.066C94.1658 113.631 94.4227 114.159 94.7867 114.61L99.1372 120.103C99.2864 120.294 99.4865 120.44 99.7145 120.523C99.9426 120.606 100.189 120.623 100.427 120.572L100.455 120.566C100.627 120.523 100.789 120.446 100.93 120.339C101.071 120.232 101.188 120.098 101.275 119.944L104.301 114.633C104.861 113.666 105.09 112.543 104.954 111.434C104.923 110.822 104.697 110.235 104.309 109.761C103.92 109.286 103.39 108.948 102.796 108.796C102.796 108.796 101.056 108.064 99.1328 109.62Z" fill="black"/>
<path d="M99.1533 109.929C99.1533 109.929 97.2634 108.727 95.4594 109.929C94.8992 110.308 94.5082 110.889 94.3686 111.551C94.2479 112.081 94.2488 112.632 94.3714 113.162C94.4939 113.692 94.7349 114.187 95.0763 114.61L99.1574 119.763C99.2974 119.942 99.4851 120.079 99.699 120.157C99.9129 120.234 100.144 120.251 100.367 120.203L100.394 120.197C100.555 120.157 100.707 120.085 100.839 119.985C100.971 119.884 101.081 119.758 101.163 119.613L104.001 114.632C104.526 113.725 104.742 112.671 104.614 111.631C104.585 111.057 104.373 110.506 104.009 110.061C103.644 109.616 103.147 109.299 102.589 109.156C102.589 109.156 100.957 108.469 99.1533 109.929Z" fill="#FF3030"/>
<path opacity="0.1" d="M99.2268 111.99C98.9558 111.826 98.6451 111.739 98.3282 111.739C98.0114 111.739 97.7006 111.826 97.4296 111.99C97.1571 112.174 96.9668 112.457 96.899 112.779C96.8402 113.037 96.8407 113.305 96.9003 113.563C96.9599 113.821 97.0772 114.062 97.2432 114.268C97.2432 114.268 99.5973 117.038 99.8174 116.989L99.8304 116.986C99.9889 116.948 101.585 114.278 101.585 114.278C101.841 113.837 101.946 113.324 101.884 112.818C101.87 112.539 101.766 112.271 101.589 112.054C101.412 111.838 101.17 111.683 100.899 111.614C100.611 111.524 100.306 111.511 100.012 111.577C99.7186 111.643 99.4477 111.786 99.2268 111.99Z" fill="black"/>
<path d="M91.679 127.734C96.5269 127.734 100.457 123.806 100.457 118.961C100.457 114.116 96.5269 110.188 91.679 110.188C86.8312 110.188 82.9012 114.116 82.9012 118.961C82.9012 123.806 86.8312 127.734 91.679 127.734Z" fill="#3F3D56"/>
<path opacity="0.1" d="M91.679 127.734C96.5269 127.734 100.457 123.806 100.457 118.961C100.457 114.116 96.5269 110.188 91.679 110.188C86.8312 110.188 82.9012 114.116 82.9012 118.961C82.9012 123.806 86.8312 127.734 91.679 127.734Z" fill="black"/>
<path d="M91.679 126.864C96.046 126.864 99.5862 123.326 99.5862 118.961C99.5862 114.596 96.046 111.058 91.679 111.058C87.3119 111.058 83.7717 114.596 83.7717 118.961C83.7717 123.326 87.3119 126.864 91.679 126.864Z" fill="#3F3D56"/>
<path opacity="0.1" d="M91.3303 114.494C91.3303 114.494 89.3157 113.212 87.3926 114.494C86.7954 114.897 86.3785 115.517 86.2298 116.223C86.1011 116.788 86.102 117.375 86.2327 117.94C86.3633 118.505 86.6203 119.033 86.9842 119.484L91.3347 124.977C91.4839 125.168 91.684 125.313 91.9121 125.396C92.1401 125.48 92.3869 125.497 92.6243 125.446L92.6527 125.44C92.8247 125.397 92.9861 125.32 93.1271 125.213C93.2681 125.106 93.3857 124.972 93.4726 124.817L96.4983 119.507C97.058 118.54 97.2875 117.417 97.1519 116.308C97.1208 115.696 96.8945 115.109 96.5061 114.635C96.1178 114.16 95.5877 113.822 94.9934 113.67C94.9934 113.67 93.2534 112.938 91.3303 114.494Z" fill="black"/>
<path d="M91.3508 114.803C91.3508 114.803 89.4609 113.601 87.657 114.803C87.0968 115.182 86.7057 115.763 86.5662 116.425C86.4454 116.955 86.4464 117.506 86.5689 118.036C86.6915 118.565 86.9325 119.061 87.2739 119.484L91.355 124.637C91.495 124.816 91.6826 124.953 91.8965 125.03C92.1105 125.108 92.342 125.125 92.5647 125.077L92.5914 125.071C92.7527 125.031 92.9041 124.959 93.0364 124.859C93.1686 124.758 93.2789 124.632 93.3605 124.487L96.1987 119.506C96.7238 118.599 96.9391 117.545 96.8119 116.505C96.7827 115.93 96.5704 115.38 96.2061 114.935C95.8418 114.49 95.3445 114.173 94.787 114.03C94.787 114.03 93.1548 113.343 91.3508 114.803Z" fill="#FF3030"/>
<path opacity="0.1" d="M91.4244 116.864C91.1534 116.7 90.8426 116.613 90.5258 116.613C90.209 116.613 89.8982 116.7 89.6272 116.864C89.3547 117.048 89.1644 117.331 89.0965 117.653C89.0378 117.911 89.0382 118.179 89.0978 118.437C89.1575 118.695 89.2747 118.935 89.4408 119.142C89.4408 119.142 91.7948 121.912 92.0149 121.863L92.0279 121.86C92.1865 121.822 93.783 119.152 93.783 119.152C94.0385 118.711 94.1432 118.198 94.0813 117.692C94.0671 117.412 93.9638 117.145 93.7866 116.928C93.6093 116.712 93.3674 116.557 93.0962 116.488C92.8091 116.398 92.5033 116.385 92.2097 116.451C91.9161 116.517 91.6452 116.66 91.4244 116.864Z" fill="black"/>
<path d="M84.9855 97.0278C84.7717 96.6754 84.025 96.6845 84.025 96.6845C83.3451 97.6941 81.7108 96.6217 81.7108 96.6217C80.4969 97.1644 79.7563 95.4348 79.7563 95.4348C78.123 95.1907 78.3753 93.4762 78.3753 93.4762C77.5627 93.3132 77.7907 91.8448 77.7907 91.8448C77.7907 91.8448 78.2416 91.4752 78.0197 91.2048C77.8873 90.8884 77.8399 90.543 77.8822 90.2027C75.4618 89.4664 72.8634 89.5702 70.5095 90.4972C68.1556 91.4241 66.1847 93.1197 64.9174 95.3082C63.65 97.4967 63.1608 100.049 63.5291 102.551C63.8975 105.053 65.1019 107.356 66.9464 109.087C68.7908 110.818 71.1669 111.874 73.6882 112.084C76.2095 112.294 78.7277 111.645 80.8332 110.243C82.9387 108.841 84.5077 106.768 85.285 104.362C86.0623 101.955 86.0022 99.3571 85.1145 96.9892C85.057 97.0541 85.0123 97.072 84.9855 97.0278Z" fill="#3F3D56"/>
<path opacity="0.1" d="M84.9855 97.0278C84.7717 96.6754 84.025 96.6845 84.025 96.6845C83.3451 97.6941 81.7108 96.6217 81.7108 96.6217C80.4969 97.1644 79.7563 95.4348 79.7563 95.4348C78.123 95.1907 78.3753 93.4762 78.3753 93.4762C77.5627 93.3132 77.7907 91.8448 77.7907 91.8448C77.7907 91.8448 78.2416 91.4752 78.0197 91.2048C77.8873 90.8884 77.8399 90.543 77.8822 90.2027C75.4618 89.4664 72.8634 89.5702 70.5095 90.4972C68.1556 91.4241 66.1847 93.1197 64.9174 95.3082C63.65 97.4967 63.1608 100.049 63.5291 102.551C63.8975 105.053 65.1019 107.356 66.9464 109.087C68.7908 110.818 71.1669 111.874 73.6882 112.084C76.2095 112.294 78.7277 111.645 80.8332 110.243C82.9387 108.841 84.5077 106.768 85.285 104.362C86.0623 101.955 86.0022 99.3571 85.1145 96.9892C85.057 97.0541 85.0123 97.072 84.9855 97.0278Z" fill="black"/>
<path d="M84.3208 96.9836C84.1175 96.6484 83.4073 96.6571 83.4073 96.6571C82.7607 97.6173 81.2064 96.5973 81.2064 96.5973C80.0519 97.1135 79.3476 95.4685 79.3476 95.4685C77.7942 95.2364 78.0342 93.6058 78.0342 93.6058C77.2613 93.4508 77.4782 92.0542 77.4782 92.0542C77.4782 92.0542 77.907 91.7027 77.696 91.4456C77.5701 91.1447 77.525 90.8162 77.5652 90.4926C75.2633 89.7923 72.7921 89.891 70.5534 90.7726C68.3147 91.6542 66.4403 93.2668 65.235 95.3482C64.0297 97.4295 63.5644 99.8572 63.9147 102.236C64.2651 104.616 65.4105 106.806 67.1647 108.453C68.9189 110.099 71.1787 111.103 73.5765 111.303C75.9744 111.502 78.3693 110.885 80.3717 109.552C82.3742 108.218 83.8664 106.247 84.6056 103.959C85.3449 101.67 85.2878 99.1988 84.4435 96.9469C84.3887 97.0086 84.3463 97.0256 84.3208 96.9836Z" fill="#3F3D56"/>
<path d="M73.1806 96.3339C73.1806 96.3339 71.3411 95.164 69.5853 96.3339C69.0401 96.7027 68.6594 97.2686 68.5237 97.9124C68.4061 98.4286 68.407 98.9646 68.5263 99.4804C68.6456 99.9961 68.8802 100.478 69.2124 100.89L73.1847 105.905C73.3209 106.08 73.5035 106.213 73.7118 106.289C73.92 106.364 74.1453 106.38 74.3621 106.334L74.388 106.328C74.545 106.289 74.6924 106.219 74.8211 106.121C74.9499 106.024 75.0572 105.901 75.1366 105.76L77.8991 100.911C78.4102 100.028 78.6197 99.003 78.4959 97.9904C78.4675 97.4313 78.2609 96.896 77.9063 96.4626C77.5517 96.0293 77.0677 95.7206 76.5251 95.5818C76.5251 95.5818 74.9365 94.9133 73.1806 96.3339Z" fill="#FF3030"/>
<path opacity="0.1" d="M73.1806 96.3339C73.1806 96.3339 71.3411 95.164 69.5853 96.3339C69.0401 96.7027 68.6594 97.2686 68.5237 97.9124C68.4061 98.4286 68.407 98.9646 68.5263 99.4804C68.6456 99.9961 68.8802 100.478 69.2124 100.89L73.1847 105.905C73.3209 106.08 73.5035 106.213 73.7118 106.289C73.92 106.364 74.1453 106.38 74.3621 106.334L74.388 106.328C74.545 106.289 74.6924 106.219 74.8211 106.121C74.9499 106.024 75.0572 105.901 75.1366 105.76L77.8991 100.911C78.4102 100.028 78.6197 99.003 78.4959 97.9904C78.4675 97.4313 78.2609 96.896 77.9063 96.4626C77.5517 96.0293 77.0677 95.7206 76.5251 95.5818C76.5251 95.5818 74.9365 94.9133 73.1806 96.3339Z" fill="black"/>
<path d="M73.1993 96.6163C73.1993 96.6163 71.4737 95.5188 69.8266 96.6163C69.3152 96.9622 68.9581 97.4931 68.8307 98.097C68.7205 98.5812 68.7213 99.084 68.8332 99.5678C68.9451 100.052 69.1652 100.504 69.4769 100.891L73.2031 105.595C73.3309 105.759 73.5022 105.883 73.6975 105.954C73.8928 106.026 74.1043 106.04 74.3076 105.997L74.332 105.991C74.4792 105.955 74.6175 105.889 74.7382 105.798C74.859 105.706 74.9597 105.591 75.0342 105.458L77.6256 100.91C78.105 100.082 78.3016 99.1201 78.1854 98.1702C78.1588 97.6458 77.965 97.1436 77.6323 96.737C77.2997 96.3305 76.8457 96.041 76.3367 95.9108C76.3367 95.9108 74.8464 95.2836 73.1993 96.6163Z" fill="#FF3030"/>
<path opacity="0.1" d="M73.2665 98.4981C73.0191 98.3483 72.7353 98.2691 72.446 98.2691C72.1568 98.2691 71.873 98.3483 71.6256 98.4981C71.3768 98.6664 71.203 98.9247 71.1411 99.2185C71.0874 99.4541 71.0878 99.6987 71.1423 99.9341C71.1967 100.169 71.3038 100.389 71.4554 100.578C71.4554 100.578 73.6047 103.107 73.8057 103.062L73.8175 103.059C74.3944 102.264 74.9293 101.439 75.42 100.587C75.6532 100.184 75.7488 99.7162 75.6923 99.2541C75.6794 98.999 75.5851 98.7546 75.4232 98.5568C75.2614 98.359 75.0405 98.2182 74.7929 98.1548C74.5307 98.0726 74.2515 98.0611 73.9835 98.1213C73.7155 98.1816 73.4681 98.3116 73.2665 98.4981Z" fill="black"/>
<path opacity="0.1" d="M68.0229 102.496L68.2579 102.888L68.7285 103.671L68.8856 104.22L68.5715 104.69L68.9641 105.631L69.1206 106.18L68.807 106.494L69.4346 106.964" fill="black"/>
<path opacity="0.1" d="M79.5525 99.0464V99.6737L79.1605 100.693L78.9249 101.241L79.317 101.947L79.474 102.417L80.1016 102.652L80.3367 103.044V103.985" fill="black"/>
<path opacity="0.1" d="M83.5526 99.6735L82.9251 100.065C82.9251 100.065 82.6113 100.222 82.6113 100.301V100.928" fill="black"/>
<path opacity="0.1" d="M80.7288 97.4785L80.8858 98.2622L80.7288 98.811" fill="black"/>
<path opacity="0.1" d="M81.3564 104.534L80.8858 105.239L80.3367 105.71V106.023L80.6507 106.415V106.886L80.4152 107.356" fill="black"/>
<path opacity="0.1" d="M76.8855 91.2073H76.1014L75.4738 91.7561L74.4541 92.3049L73.9835 92.6968V92.8537L72.9638 93.402L72.6503 93.9508" fill="black"/>
<path opacity="0.1" d="M68.4148 92.5399L67.7089 93.951L67.4736 94.4997L66.9246 95.2052C66.9246 95.2052 66.5324 95.9107 66.454 95.9891C66.2536 96.0891 66.0433 96.1679 65.8265 96.2243L66.6109 97.0082" fill="black"/>
<path opacity="0.1" d="M65.2774 97.9489L65.1204 98.968L65.2774 99.5952V100.693L64.8068 102.731L65.2774 103.279L65.8265 103.985" fill="black"/>
<path opacity="0.1" d="M66.4541 98.4192L66.9247 98.6546L67.2383 99.6737L67.8659 99.5168L68.1794 100.066" fill="black"/>
<path opacity="0.1" d="M75.0817 108.61L76.3364 108.454L76.8855 107.905H77.6701" fill="black"/>
<path opacity="0.1" d="M67.4738 106.964L67.9444 107.513L68.7286 107.748L69.2777 107.905L69.4347 108.767" fill="black"/>
<path opacity="0.1" d="M76.729 104.299L77.2781 103.907L77.5132 103.279L77.9837 103.201L78.2193 102.417" fill="black"/>
<path d="M51.11 123.387L49.6471 127.286C49.6471 127.286 48.6718 139.959 54.5236 139.471C60.3755 138.984 63.7891 131.673 63.7891 131.673C63.7891 131.673 60.3755 122.413 56.4742 123.387C52.573 124.362 51.11 123.387 51.11 123.387Z" fill="#FF6584"/>
<path d="M55.9866 125.824C55.9866 125.824 53.0607 134.597 56.4742 134.597C59.8878 134.597 66.2273 129.236 66.715 124.85C67.2026 120.463 75.9804 103.892 69.6409 105.354C63.3014 106.816 60.3755 119.001 60.3755 119.001L55.9866 125.824Z" fill="#FBBEBE"/>
<path d="M125.721 126.312L128.768 131.4C128.768 131.4 130.11 140.933 123.283 140.933C116.456 140.933 106.703 131.673 106.703 131.673C106.703 131.673 101.826 129.723 98.9001 130.211C95.9742 130.698 79.8816 130.211 86.7088 121.925C93.5359 113.64 105.24 121.925 105.24 121.925L117.431 127.774L123.771 124.362L125.721 126.312Z" fill="#FBBEBE"/>
<path d="M121.576 119.732L116.7 127.53C116.7 127.53 127.916 128.992 128.891 131.429C129.866 133.866 124.502 118.757 124.502 118.757L121.576 119.732Z" fill="#FF6584"/>
</svg>
